<svg width="100" height="100" viewBox="0 0 100 100" fill="none" xmlns="http://www.w3.org/2000/svg">
<circle cx="50" cy="50" r="50" fill="#2B2F53"/>
<g clip-path="url(#clip0_64_935)">
<path d="M29.5147 35C26.4686 35 23.5473 36.2101 21.3934 38.364L14.364 45.3934C12.2101 47.5473 11 50.4686 11 53.5147C11 59.8579 16.1421 65 22.4853 65C25.5314 65 28.4527 63.7899 30.6066 61.636L35.4689 56.7737C35.4689 56.7736 35.469 56.7738 35.4689 56.7737L49.636 42.6066C50.6647 41.5779 52.0599 41 53.5147 41C55.9503 41 58.0152 42.5874 58.7311 44.7841L63.2022 40.313C61.1625 37.1183 57.586 35 53.5147 35C50.4686 35 47.5473 36.2101 45.3934 38.364L26.364 57.3934C25.3353 58.4221 23.9401 59 22.4853 59C19.4558 59 17 56.5442 17 53.5147C17 52.0599 17.5779 50.6647 18.6066 49.636L25.636 42.6066C26.6647 41.5779 28.0599 41 29.5147 41C31.9504 41 34.0152 42.5875 34.7311 44.7842L39.2023 40.3131C37.1626 37.1184 33.5861 35 29.5147 35Z" fill="white"/>
<path d="M50.3641 57.3934C49.3354 58.4221 47.9402 59 46.4854 59C44.0501 59 41.9854 57.413 41.2693 55.2167L36.7983 59.6877C38.8381 62.8819 42.4144 65 46.4854 65C49.5315 65 52.4528 63.7899 54.6067 61.636L73.6361 42.6066C74.6648 41.5779 76.06 41 77.5148 41C80.5443 41 83.0001 43.4558 83.0001 46.4853C83.0001 47.9401 82.4222 49.3353 81.3935 50.364L74.3641 57.3934C73.3354 58.4221 71.9402 59 70.4854 59C68.0499 59 65.9851 57.4127 65.2691 55.2162L60.7981 59.6873C62.8378 62.8818 66.4142 65 70.4854 65C73.5315 65 76.4528 63.7899 78.6067 61.636L85.6361 54.6066C87.79 52.4527 89.0001 49.5314 89.0001 46.4853C89.0001 40.1421 83.858 35 77.5148 35C74.4687 35 71.5474 36.2101 69.3935 38.364L50.3641 57.3934Z" fill="white"/>
</g>
<defs>
<clipPath id="clip0_64_935">
<rect width="78" height="30" fill="white" transform="translate(11 35)"/>
</clipPath>
</defs>
</svg>
